<?xml version="1.0" standalone="no"?>
<!DOCTYPE svg PUBLIC "-//W3C//DTD SVG 20010904//EN"
 "http://www.w3.org/TR/2001/REC-SVG-20010904/DTD/svg10.dtd">
<svg version="1.0" xmlns="http://www.w3.org/2000/svg"
 width="400.000000pt" height="400.000000pt" viewBox="0 0 400.000000 400.000000"
 preserveAspectRatio="xMidYMid meet">
<metadata>
Created by potrace 1.11, written by Peter Selinger 2001-2013
</metadata>
<g transform="translate(0.000000,400.000000) scale(0.100000,-0.100000)"
fill="#000000" stroke="none">
<path d="M0 1995 l0 -1995 2000 0 2000 0 0 1995 0 1995 -2000 0 -2000 0 0
-1995z m546 1256 c23 -10 52 -34 65 -52 l24 -34 5 -570 c6 -640 3 -616 80
-655 36 -19 59 -20 302 -20 234 0 267 -2 304 -19 138 -63 132 -277 -9 -330
-18 -7 -144 -11 -337 -11 -267 0 -311 -2 -324 -16 -19 -19 -20 -25 -3 -46 11
-14 90 -17 735 -23 397 -4 722 -5 722 -2 0 3 -28 25 -62 50 -205 147 -356 396
-388 639 -52 404 111 755 452 972 85 54 198 96 317 117 271 49 539 -10 746
-163 257 -192 395 -464 395 -780 0 -126 -24 -261 -64 -358 -26 -66 -96 -191
-127 -229 l-20 -25 -307 307 c-200 199 -315 307 -328 307 -26 0 -44 -19 -44
-46 0 -23 51 -74 592 -602 l197 -192 105 0 c119 0 121 -2 114 -86 l-3 -39
-133 -3 -134 -3 -211 205 c-577 560 -645 629 -658 674 -29 99 66 222 171 222
67 0 102 -28 362 -287 l256 -256 20 40 c125 244 104 596 -49 820 -42 62 -151
176 -210 219 -66 48 -175 100 -266 126 -112 32 -333 32 -446 0 -153 -44 -275
-119 -389 -240 -156 -166 -228 -372 -215 -612 13 -213 78 -365 225 -521 146
-155 311 -236 522 -255 82 -8 80 -6 80 -74 l0 -60 -986 0 -986 0 -40 22 c-123
69 -113 260 16 319 37 17 71 19 353 19 302 0 313 1 323 20 8 14 8 26 0 40 -10
19 -21 20 -275 20 -242 0 -269 2 -319 20 -66 25 -130 85 -159 148 -22 46 -22
58 -25 601 -2 382 -6 559 -14 568 -16 19 -56 16 -68 -6 -7 -13 -10 -291 -10
-831 0 -910 4 -855 -73 -911 -34 -25 -49 -29 -102 -29 l-63 0 -4 35 c-2 19 -2
51 0 69 4 34 6 35 51 38 l46 3 5 820 c5 882 3 850 58 909 54 57 133 71 208 37z"/>
</g>
</svg>
